<svg width="53" height="56" viewBox="0 0 53 56" fill="none" xmlns="http://www.w3.org/2000/svg">
<path d="M50.7616 40.5952C50.7616 48.8284 39.703 55.5026 26.0616 55.5026C12.4202 55.5026 1.36157 48.8284 1.36157 40.5952C1.36157 32.3622 12.4202 25.6878 26.0616 25.6878C39.703 25.6878 50.7616 32.3622 50.7616 40.5952Z" fill="url(#paint0_linear_2126_864)"/>
<path d="M52.0616 23.0952C52.0616 36.6977 54.6614 52.2619 26.0616 52.2619C-2.53843 52.2619 0.061536 36.6977 0.061536 23.0952C0.061536 9.49264 30.6116 12.7248 28.6616 14.6693C26.7116 16.6137 52.0616 9.49264 52.0616 23.0952Z" fill="#D9D9D9"/>
<path d="M52.0616 22.447C52.0616 29.9643 40.421 36.0582 26.0616 36.0582C11.7022 36.0582 0.0615234 29.9643 0.0615234 22.447C0.0615234 14.9298 11.7022 8.83594 26.0616 8.83594C40.421 8.83594 52.0616 14.9298 52.0616 22.447Z" fill="url(#paint1_radial_2126_864)"/>
<path d="M22.1616 27.6323C22.1616 30.138 20.7065 32.1693 18.9116 32.1693C17.1167 32.1693 15.6616 30.138 15.6616 27.6323C15.6616 25.1265 17.1167 23.0952 18.9116 23.0952C20.7065 23.0952 22.1616 25.1265 22.1616 27.6323Z" fill="white"/>
<path d="M22.1616 27.6323C22.1616 30.138 20.7065 32.1693 18.9116 32.1693C17.1167 32.1693 15.6616 30.138 15.6616 27.6323C15.6616 25.1265 17.1167 23.0952 18.9116 23.0952C20.7065 23.0952 22.1616 25.1265 22.1616 27.6323Z" fill="white"/>
<path d="M36.4615 27.6323C36.4615 30.138 35.0065 32.1693 33.2115 32.1693C31.4166 32.1693 29.9615 30.138 29.9615 27.6323C29.9615 25.1265 31.4166 23.0952 33.2115 23.0952C35.0065 23.0952 36.4615 25.1265 36.4615 27.6323Z" fill="white"/>
<path d="M20.8615 28.2804C20.8615 29.7123 19.9885 30.873 18.9115 30.873C17.8345 30.873 16.9615 29.7123 16.9615 28.2804C16.9615 26.8486 17.8345 25.6878 18.9115 25.6878C19.9885 25.6878 20.8615 26.8486 20.8615 28.2804Z" fill="black"/>
<path d="M35.1616 28.2804C35.1616 29.7123 34.2885 30.873 33.2116 30.873C32.1345 30.873 31.2616 29.7123 31.2616 28.2804C31.2616 26.8486 32.1345 25.6878 33.2116 25.6878C34.2885 25.6878 35.1616 26.8486 35.1616 28.2804Z" fill="black"/>
<path d="M52.8183 15.317C52.3433 22.8192 40.3408 28.1697 26.0098 27.2673C11.679 26.3651 0.446612 19.5519 0.921632 12.0497C1.39667 4.54738 13.3992 -0.802995 27.7301 0.0992401C42.0609 1.00149 53.2933 7.81469 52.8183 15.317Z" fill="#D9D9D9"/>
<path d="M26.1598 11.2613C26.2558 10.5518 26.9102 10.054 27.6218 10.1496C28.3333 10.2451 28.8325 10.8978 28.7367 11.6074L28.5631 12.892C28.4673 13.6016 27.8128 14.0992 27.1013 14.0037C26.3897 13.9082 25.8906 13.2555 25.9864 12.546L26.1598 11.2613Z" fill="#FC6363"/>
<path d="M19.5616 28.9285C19.5616 29.2866 19.2705 29.5767 18.9116 29.5767C18.5525 29.5767 18.2616 29.2866 18.2616 28.9285C18.2616 28.5706 18.5525 28.2804 18.9116 28.2804C19.2705 28.2804 19.5616 28.5706 19.5616 28.9285Z" fill="white"/>
<path d="M33.8615 28.9285C33.8615 29.2866 33.5705 29.5767 33.2115 29.5767C32.8525 29.5767 32.5615 29.2866 32.5615 28.9285C32.5615 28.5706 32.8525 28.2804 33.2115 28.2804C33.5705 28.2804 33.8615 28.5706 33.8615 28.9285Z" fill="white"/>
<defs>
<linearGradient id="paint0_linear_2126_864" x1="26.0616" y1="25.6878" x2="26.0616" y2="55.5026" gradientUnits="userSpaceOnUse">
<stop offset="0.21" stop-color="#FF2A2A"/>
<stop offset="1" stop-color="#EE6969"/>
</linearGradient>
<radialGradient id="paint1_radial_2126_864" cx="0" cy="0" r="1" gradientUnits="userSpaceOnUse" gradientTransform="translate(26.4165 27.7514) scale(26.4164 27.7514)">
<stop stop-color="#606060"/>
<stop offset="1" stop-color="#282828"/>
</radialGradient>
</defs>
</svg>
