<svg width="86" height="91" viewBox="0 0 86 91" fill="none" xmlns="http://www.w3.org/2000/svg">
<path d="M82 66.1943C82 79.485 64.1361 90.2592 42.1 90.2592C20.0638 90.2592 2.19989 79.485 2.19989 66.1943C2.19989 52.9039 20.0638 42.1295 42.1 42.1295C64.1361 42.1295 82 52.9039 82 66.1943Z" fill="#FC6363"/>
<path d="M84.1 37.9443C84.1 59.9028 88.2997 85.0277 42.1 85.0277C-4.10004 85.0277 0.0998926 59.9028 0.0998926 37.9443C0.0998926 15.9859 49.45 21.2036 46.3 24.3425C43.15 27.4814 84.1 15.9859 84.1 37.9443Z" fill="#D9D9D9"/>
<path d="M84.1 36.898C84.1 49.033 65.2959 58.8703 42.1 58.8703C18.904 58.8703 0.0998921 49.033 0.0998921 36.898C0.0998921 24.7631 18.904 14.9258 42.1 14.9258C65.2959 14.9258 84.1 24.7631 84.1 36.898Z" fill="url(#paint0_radial_2827_6149)"/>
<path d="M35.8 45.2684C35.8 49.3134 33.4494 52.5925 30.55 52.5925C27.6505 52.5925 25.3 49.3134 25.3 45.2684C25.3 41.2234 27.6505 37.9443 30.55 37.9443C33.4494 37.9443 35.8 41.2234 35.8 45.2684Z" fill="white"/>
<path d="M35.8 45.2684C35.8 49.3134 33.4494 52.5925 30.55 52.5925C27.6505 52.5925 25.3 49.3134 25.3 45.2684C25.3 41.2234 27.6505 37.9443 30.55 37.9443C33.4494 37.9443 35.8 41.2234 35.8 45.2684Z" fill="white"/>
<path d="M58.9 45.2684C58.9 49.3134 56.5494 52.5925 53.65 52.5925C50.7505 52.5925 48.4 49.3134 48.4 45.2684C48.4 41.2234 50.7505 37.9443 53.65 37.9443C56.5494 37.9443 58.9 41.2234 58.9 45.2684Z" fill="white"/>
<path d="M33.7 46.3147C33.7 48.6262 32.2896 50.4999 30.55 50.4999C28.8101 50.4999 27.4 48.6262 27.4 46.3147C27.4 44.0034 28.8101 42.1295 30.55 42.1295C32.2896 42.1295 33.7 44.0034 33.7 46.3147Z" fill="black"/>
<path d="M56.8 46.3147C56.8 48.6262 55.3896 50.4999 53.65 50.4999C51.9101 50.4999 50.5 48.6262 50.5 46.3147C50.5 44.0034 51.9101 42.1295 53.65 42.1295C55.3896 42.1295 56.8 44.0034 56.8 46.3147Z" fill="black"/>
<path d="M85.3224 25.3882C84.555 37.4988 65.1664 46.136 42.0164 44.6793C18.8666 43.2229 0.721976 32.2244 1.48932 20.1138C2.25668 8.00288 21.6453 -0.634154 44.7953 0.822311C67.9451 2.2788 86.0897 13.2773 85.3224 25.3882Z" fill="#D9D9D9"/>
<path d="M42.2587 18.8411C42.4137 17.6958 43.4708 16.8922 44.6204 17.0465C45.7697 17.2007 46.5761 18.2543 46.4213 19.3998L46.141 21.4735C45.9862 22.619 44.9289 23.4224 43.7795 23.2681C42.63 23.1139 41.8238 22.0603 41.9786 20.915L42.2587 18.8411Z" fill="#FC6363"/>
<path d="M31.6 47.361C31.6 47.939 31.1298 48.4073 30.55 48.4073C29.9699 48.4073 29.5 47.939 29.5 47.361C29.5 46.7832 29.9699 46.3147 30.55 46.3147C31.1298 46.3147 31.6 46.7832 31.6 47.361Z" fill="white"/>
<path d="M54.7 47.361C54.7 47.939 54.2298 48.4073 53.65 48.4073C53.0699 48.4073 52.6 47.939 52.6 47.361C52.6 46.7832 53.0699 46.3147 53.65 46.3147C54.2298 46.3147 54.7 46.7832 54.7 47.361Z" fill="white"/>
<defs>
<radialGradient id="paint0_radial_2827_6149" cx="0" cy="0" r="1" gradientUnits="userSpaceOnUse" gradientTransform="translate(43.2557 62.9188) scale(43.356 91.3386)">
<stop stop-color="#606060"/>
<stop offset="1" stop-color="#282828"/>
</radialGradient>
</defs>
</svg>
