<svg width="96" height="21" viewBox="0 0 96 21" fill="none" xmlns="http://www.w3.org/2000/svg">
<path d="M0.24 20V3.2H9.144C10.248 3.2 11.232 3.44 12.096 3.92C12.976 4.4 13.672 5.056 14.184 5.888C14.696 6.72 14.952 7.656 14.952 8.696C14.952 9.816 14.68 10.816 14.136 11.696C13.608 12.56 12.888 13.248 11.976 13.76C11.064 14.272 10.032 14.528 8.88 14.528H4.32V20H0.24ZM4.248 10.952H8.208C8.672 10.952 9.088 10.856 9.456 10.664C9.84 10.472 10.144 10.216 10.368 9.896C10.592 9.56 10.704 9.184 10.704 8.768C10.704 8.352 10.592 8 10.368 7.712C10.144 7.424 9.84 7.2 9.456 7.04C9.088 6.88 8.672 6.8 8.208 6.8H4.248V10.952ZM27.0013 20.24C25.4653 20.24 24.0973 19.96 22.8973 19.4C21.6973 18.824 20.7533 18.04 20.0653 17.048C19.3933 16.04 19.0573 14.896 19.0573 13.616C19.0573 12.32 19.3933 11.176 20.0653 10.184C20.7533 9.192 21.6973 8.416 22.8973 7.856C24.0973 7.28 25.4653 6.992 27.0013 6.992C28.5693 6.992 29.9453 7.28 31.1293 7.856C32.3133 8.416 33.2413 9.192 33.9133 10.184C34.6013 11.176 34.9453 12.32 34.9453 13.616C34.9453 14.896 34.6013 16.04 33.9133 17.048C33.2413 18.04 32.3133 18.824 31.1293 19.4C29.9453 19.96 28.5693 20.24 27.0013 20.24ZM27.0253 16.928C27.7773 16.928 28.4573 16.792 29.0653 16.52C29.6893 16.232 30.1773 15.84 30.5293 15.344C30.8973 14.848 31.0733 14.272 31.0573 13.616C31.0733 12.96 30.8973 12.384 30.5293 11.888C30.1773 11.376 29.6893 10.984 29.0653 10.712C28.4573 10.424 27.7773 10.28 27.0253 10.28C26.2573 10.28 25.5613 10.424 24.9373 10.712C24.3133 10.984 23.8253 11.376 23.4733 11.888C23.1213 12.384 22.9453 12.96 22.9453 13.616C22.9453 14.272 23.1213 14.848 23.4733 15.344C23.8253 15.84 24.3133 16.232 24.9373 16.52C25.5613 16.792 26.2573 16.928 27.0253 16.928ZM41.9033 20V3.632H45.7433V20H41.9033ZM38.8313 10.616V7.256H49.2953V10.616H38.8313ZM55.0208 20V7.256H58.6688L58.8368 11.768L57.8528 11.432C58.0768 10.6 58.4528 9.856 58.9808 9.2C59.5248 8.528 60.1568 7.992 60.8768 7.592C61.6128 7.192 62.3808 6.992 63.1808 6.992C63.6448 6.992 64.0848 7.04 64.5008 7.136C64.9328 7.232 65.3008 7.352 65.6048 7.496L64.5488 11.672C64.2768 11.48 63.9088 11.336 63.4448 11.24C62.9968 11.128 62.5488 11.072 62.1008 11.072C61.5888 11.072 61.1328 11.152 60.7328 11.312C60.3488 11.472 60.0128 11.696 59.7248 11.984C59.4528 12.256 59.2448 12.568 59.1008 12.92C58.9568 13.256 58.8848 13.624 58.8848 14.024V20H55.0208ZM71.0799 20V7.256H74.9439V20H71.0799ZM72.9999 4.592C72.2799 4.592 71.7199 4.424 71.3199 4.088C70.9199 3.736 70.7199 3.24 70.7199 2.6C70.7199 2.024 70.9199 1.552 71.3199 1.184C71.7199 0.815999 72.2799 0.631999 72.9999 0.631999C73.7199 0.631999 74.2799 0.807999 74.6799 1.16C75.0959 1.496 75.3039 1.976 75.3039 2.6C75.3039 3.192 75.0959 3.672 74.6799 4.04C74.2639 4.408 73.7039 4.592 72.9999 4.592ZM82.2083 20V7.256H85.8563L86.0003 10.376L85.0403 10.64C85.2483 10 85.6083 9.408 86.1203 8.864C86.6483 8.304 87.2883 7.856 88.0403 7.52C88.8083 7.168 89.6483 6.992 90.5603 6.992C91.7123 6.992 92.6723 7.216 93.4403 7.664C94.2243 8.112 94.8163 8.744 95.2163 9.56C95.6323 10.36 95.8403 11.288 95.8403 12.344V20H92.0003V12.968C92.0003 12.408 91.8803 11.92 91.6403 11.504C91.4163 11.088 91.0883 10.768 90.6562 10.544C90.2403 10.32 89.7523 10.216 89.1923 10.232C88.7123 10.232 88.2803 10.32 87.8963 10.496C87.5123 10.656 87.1763 10.872 86.8883 11.144C86.6163 11.416 86.4083 11.712 86.2643 12.032C86.1363 12.352 86.0723 12.672 86.0723 12.992V20H84.1523C83.5923 20 83.1523 20 82.8323 20C82.5123 20 82.3043 20 82.2083 20Z" fill="black"/>
</svg>
